#N canvas 150 232 702 685 12;
#X msg 88 467 bgcolor \$1 \$2 \$3;
#X obj 248 442 pack f f f;
#X obj 295 409 * 255;
#X obj 295 354 * -1;
#X obj 295 378 + 1;
#X obj 343 409 * 255;
#X obj 343 354 * -1;
#X obj 343 378 + 1;
#X obj 88 229 * -1;
#X obj 88 442 pack f f f;
#X obj 88 409 * 255;
#X obj 88 354 * -1;
#X obj 88 378 + 1;
#X obj 88 288 t f f f, f 15;
#X obj 139 409 * 255;
#X obj 139 354 * -1;
#X obj 139 378 + 1;
#X obj 202 210 moses 0;
#X obj 248 288 t b f f, f 14;
#X msg 248 409 255;
#X obj 343 322 * 0.9;
#X obj 190 409 * 255;
#X obj 190 354 * -1;
#X obj 190 378 + 1;
#X obj 66 121 r \$2-channel\$1;
#X obj 88 491 s \$2-display\$1;
#X obj 66 560 s \$2-data\$1;
#X obj 202 186 change;
#X obj 88 258 pow 0.7;
#X obj 248 252 pow 0.7;
#X obj 295 322 * 0.78;
#X obj 139 322 * 0.5;
#X obj 88 322 * 0.65;
#X obj 190 322 * 0.25;
#X obj 474 121 r \$2-data\$1;
#X obj 474 145 pack f \$1;
#X msg 474 169 c\$2 \$1;
#X obj 474 193 s \$2-uniforms;
#X connect 0 0 25 0;
#X connect 1 0 0 0;
#X connect 2 0 1 1;
#X connect 3 0 4 0;
#X connect 4 0 2 0;
#X connect 5 0 1 2;
#X connect 6 0 7 0;
#X connect 7 0 5 0;
#X connect 8 0 28 0;
#X connect 9 0 0 0;
#X connect 10 0 9 0;
#X connect 11 0 12 0;
#X connect 12 0 10 0;
#X connect 13 0 32 0;
#X connect 13 1 31 0;
#X connect 13 2 33 0;
#X connect 14 0 9 1;
#X connect 15 0 16 0;
#X connect 16 0 14 0;
#X connect 17 0 8 0;
#X connect 17 1 29 0;
#X connect 18 0 19 0;
#X connect 18 1 30 0;
#X connect 18 2 20 0;
#X connect 19 0 1 0;
#X connect 20 0 6 0;
#X connect 21 0 9 2;
#X connect 22 0 23 0;
#X connect 23 0 21 0;
#X connect 24 0 26 0;
#X connect 24 0 27 0;
#X connect 27 0 17 0;
#X connect 28 0 13 0;
#X connect 29 0 18 0;
#X connect 30 0 3 0;
#X connect 31 0 15 0;
#X connect 32 0 11 0;
#X connect 33 0 22 0;
#X connect 34 0 35 0;
#X connect 35 0 36 0;
#X connect 36 0 37 0;
